<svg xmlns="http://www.w3.org/2000/svg" version="1.0" width="536.000000pt" height="497.000000pt" viewBox="0 0 536.000000 497.000000" preserveAspectRatio="xMidYMid meet">

<g transform="translate(0.000000,497.000000) scale(0.100000,-0.100000)" fill="#ffffff" stroke="none">
<path d="M1800 4919 c-58 -26 -96 -63 -126 -121 -22 -44 -24 -59 -24 -198 l0 -150 -698 0 c-786 0 -768 1 -847 -71 -94 -87 -113 -227 -45 -328 37 -54 82 -90 139 -109 25 -9 340 -12 1217 -12 651 0 1184 -3 1184 -7 0 -28 -135 -356 -232 -568 -106 -230 -372 -695 -398 -695 -5 0 -37 39 -72 88 -149 203 -290 429 -399 640 -86 167 -138 215 -252 228 -159 19 -304 -127 -283 -285 16 -125 297 -599 570 -964 53 -70 96 -132 96 -136 0 -15 -226 -254 -337 -356 -264 -246 -430 -380 -622 -505 -206 -134 -213 -140 -245 -203 -89 -175 32 -371 229 -371 84 0 111 13 305 141 254 168 525 396 812 682 l206 206 134 -130 c185 -181 332 -301 391 -321 93 -31 199 -8 266 58 55 53 75 104 76 183 0 107 -22 143 -164 263 -65 55 -175 158 -245 227 -113 114 -125 130 -114 146 330 462 613 1022 793 1567 l37 112 217 0 218 0 60 30 c47 24 70 43 99 86 33 48 39 64 42 123 5 86 -22 154 -83 210 -79 72 -61 71 -847 71 l-698 0 1 149 c1 140 -1 152 -24 197 -48 94 -128 144 -232 144 -39 0 -76 -8 -105 -21z" fill="#ffffff"/>
<path d="M3929 3121 c-50 -10 -124 -55 -153 -94 -13 -17 -145 -327 -294 -687 -149 -360 -393 -952 -543 -1315 -269 -649 -274 -661 -274 -730 0 -112 50 -191 150 -236 55 -25 157 -25 210 1 92 44 111 74 241 392 l109 268 606 0 606 0 114 -277 c106 -261 116 -281 164 -328 56 -56 103 -75 186 -75 138 1 249 114 249 253 0 65 26 0 -753 1885 -369 893 -363 879 -451 920 -49 23 -118 32 -167 23z m255 -1425 c102 -247 184 -451 182 -453 -1 -2 -176 -2 -388 -1 l-385 3 183 445 c225 546 204 500 214 475 4 -11 92 -222 194 -469z" fill="#ffffff"/>
</g>
</svg>